<?xml version="1.0" encoding="UTF-8" standalone="no" ?>
<!DOCTYPE svg PUBLIC "-//W3C//DTD SVG 1.1//EN" "http://www.w3.org/Graphics/SVG/1.1/DTD/svg11.dtd">
<svg xmlns="http://www.w3.org/2000/svg" xmlns:xlink="http://www.w3.org/1999/xlink" version="1.1" width="450" height="530" viewBox="0 0 450 530" xml:space="preserve">
<desc>Created with Fabric.js 3.6.6</desc>
<defs>
</defs>
<g transform="matrix(-1 0 0 1 233 252)"  >
<g style=""   >
		<g transform="matrix(1 0 0 1 -437.57 -477.76)"  >
<rect style="stroke: none; stroke-width: 1; stroke-dasharray: none; stroke-linecap: butt; stroke-dashoffset: 0; stroke-linejoin: miter; stroke-miterlimit: 4; fill: rgb(255,255,255); fill-opacity: 0; fill-rule: nonzero; opacity: 1;"  x="-50" y="-50" rx="0" ry="0" width="100" height="100" />
</g>
		<g transform="matrix(1 0 0 1 -237.57 -277.76)" id="73114730"  >
<rect style="stroke: none; stroke-width: 1; stroke-dasharray: none; stroke-linecap: butt; stroke-dashoffset: 0; stroke-linejoin: miter; stroke-miterlimit: 4; fill: rgb(255,255,255); fill-rule: nonzero; opacity: 1; visibility: hidden;" vector-effect="non-scaling-stroke"  x="-250" y="-250" rx="0" ry="0" width="500" height="500" />
</g>
		<g transform="matrix(1 0 0 1 -12.57 270.98)"  >
<path style="stroke: none; stroke-width: 1; stroke-dasharray: none; stroke-linecap: butt; stroke-dashoffset: 0; stroke-linejoin: miter; stroke-miterlimit: 4; fill: rgb(63,61,86); fill-rule: nonzero; opacity: 1;" vector-effect="non-scaling-stroke"  transform=" translate(-262.34, -519)" d="M 524.67004 518.99758 C 524.67004 519.65761 524.14001 520.18758 523.47998 520.18758 L 1.19 520.18758 C 0.53003 520.18758 0 519.65761 0 518.99758 C 0 518.33755 0.53003 517.8075799999999 1.19 517.8075799999999 L 523.47998 517.8075799999999 C 524.14001 517.8075799999999 524.67004 518.3376099999999 524.67004 518.99758 Z" stroke-linecap="round" />
</g>
		<g transform="matrix(1 0 0 1 82.64 228.04)"  >
<polygon style="stroke: none; stroke-width: 1; stroke-dasharray: none; stroke-linecap: butt; stroke-dashoffset: 0; stroke-linejoin: miter; stroke-miterlimit: 4; fill: rgb(255,182,182); fill-rule: nonzero; opacity: 1;" vector-effect="non-scaling-stroke"  points="5,-15 11,10 -7,15 -11,-12 5,-15 " />
</g>
		<g transform="matrix(1 0 0 1 108.64 155.04)"  >
<polygon style="stroke: none; stroke-width: 1; stroke-dasharray: none; stroke-linecap: butt; stroke-dashoffset: 0; stroke-linejoin: miter; stroke-miterlimit: 4; fill: rgb(255,182,182); fill-rule: nonzero; opacity: 1;" vector-effect="non-scaling-stroke"  points="8,-23 -11,-7 -23,12 -6,23 23,-10 8,-23 " />
</g>
		<g transform="matrix(1 0 0 1 112.38 95.04)"  >
<path style="stroke: none; stroke-width: 1; stroke-dasharray: none; stroke-linecap: butt; stroke-dashoffset: 0; stroke-linejoin: miter; stroke-miterlimit: 4; fill: rgb(122,116,84); fill-rule: nonzero; opacity: 1;" vector-effect="non-scaling-stroke"  transform=" translate(-387.28, -343.06)" d="M 385.54192 215.05879 L 401.54192 269.05879 C 401.54192 269.05879 472.54192 331.05879 465.54192 344.05879 C 458.54192 357.05879 411.54192 393.05879 411.54192 393.05879 C 411.54192 393.05879 415.03011 404.5706 404.78601000000003 399.8147 C 394.54192 395.05879000000004 383.54192 382.05879000000004 383.54192 382.05879000000004 C 383.54192 382.05879000000004 383.54192 372.05879000000004 388.54192 374.05879000000004 C 393.54192 376.05879000000004 416.54192 349.05879000000004 416.54192 349.05879000000004 L 366.54192 303.05879000000004 L 366.54192 456.8737500000001 C 366.54192 456.8737500000001 378.54192 467.36588000000006 366.54192 468.21233000000007 C 354.54192 469.05879000000004 343.54192 471.05879000000004 343.54192 471.05879000000004 C 343.54192 471.05879000000004 329.54192 466.05879000000004 334.54192 461.05879000000004 L 319.54192 379.05879000000004 L 308.54192 279.05879000000004 L 316.54192 227.05879000000004 L 385.54192 215.05879000000004 Z" stroke-linecap="round" />
</g>
		<g transform="matrix(1 0 0 1 87.19 251.18)"  >
<path style="stroke: none; stroke-width: 1; stroke-dasharray: none; stroke-linecap: butt; stroke-dashoffset: 0; stroke-linejoin: miter; stroke-miterlimit: 4; fill: rgb(47,46,65); fill-rule: nonzero; opacity: 1;" vector-effect="non-scaling-stroke"  transform=" translate(-362.09, -499.2)" d="M 353.54192 483.05879 C 353.54192 483.05879 354.54192 479.05879 358.54192 479.05879 L 370.75846 479.05879 C 370.75846 479.05879 374.54192 496.05879 373.54192 496.05879 C 372.54192 496.05879 389.54192 518.05879 371.54192 519.05879 C 353.54192 520.05879 348.54192 518.05879 348.54192 518.05879 L 346.54192 510.16509 C 346.54192 510.16509 343.54192 505.05879000000004 344.54192 501.05879000000004 C 345.54192 497.05879000000004 353.54192 483.05879000000004 353.54192 483.05879000000004 Z" stroke-linecap="round" />
</g>
		<g transform="matrix(1 0 0 1 93.92 167.57)"  >
<path style="stroke: none; stroke-width: 1; stroke-dasharray: none; stroke-linecap: butt; stroke-dashoffset: 0; stroke-linejoin: miter; stroke-miterlimit: 4; fill: rgb(47,46,65); fill-rule: nonzero; opacity: 1;" vector-effect="non-scaling-stroke"  transform=" translate(-368.83, -415.59)" d="M 378.54192 418.05879 C 378.54192 418.05879 390.02748 417.87769 387.2847 420.96824 C 384.54192 424.05879 379.54192 429.05879 379.54192 429.05879 C 379.54192 429.05879 367.64772 453.05879 362.09482 448.55879 C 356.54192 444.05879 347.54192 394.05879 350.54192 388.05879 C 353.54192 382.05879 357.54192 382.05879 357.54192 382.05879 L 375.99099 393.15431 C 375.99099 393.15431 364.54192 421.05879 378.54192 418.05879 Z" stroke-linecap="round" />
</g>
		<g transform="matrix(1 0 0 1 64.14 -134.96)"  >
<polygon style="stroke: none; stroke-width: 1; stroke-dasharray: none; stroke-linecap: butt; stroke-dashoffset: 0; stroke-linejoin: miter; stroke-miterlimit: 4; fill: rgb(255,182,182); fill-rule: nonzero; opacity: 1;" vector-effect="non-scaling-stroke"  points="11.5,17 15.5,-8 -11.5,-19 -15.5,19 11.5,17 " />
</g>
		<g transform="matrix(1 0 0 1 64.14 -134.96)"  >
<polygon style="stroke: none; stroke-width: 1; stroke-dasharray: none; stroke-linecap: butt; stroke-dashoffset: 0; stroke-linejoin: miter; stroke-miterlimit: 4; fill: rgb(0,0,0); fill-rule: nonzero; opacity: 0.1;" vector-effect="non-scaling-stroke"  points="11.5,17 15.5,-8 -11.5,-19 -15.5,19 11.5,17 " />
</g>
		<g transform="matrix(1 0 0 1 73.62 -71.19)"  >
<path style="stroke: none; stroke-width: 1; stroke-dasharray: none; stroke-linecap: butt; stroke-dashoffset: 0; stroke-linejoin: miter; stroke-miterlimit: 4; fill: rgb(200,230,201); fill-rule: nonzero; opacity: 1;" vector-effect="non-scaling-stroke"  transform=" translate(-348.52, -176.83)" d="M 322.04192 126.55879 L 354.04192 118.55879 L 388.04192 129.55879 C 388.04192 129.55879 403.04192 171.55879 398.04192 186.55879 C 393.04192 201.55879 393.04192 230.858 393.04192 230.858 C 393.04192 230.858 392.54192 218.05879000000002 363.54192 227.05879000000002 C 334.54192 236.05879000000002 313.54192 235.05879000000002 313.54192 235.05879000000002 L 312.54192 199.05879000000002 L 299.97961 167.08200000000002 C 294.61014 153.41425 300.39759999999995 137.89629000000002 313.40572 131.08251 L 322.04191999999995 126.55879000000002 Z" stroke-linecap="round" />
</g>
		<g transform="matrix(1 0 0 1 178.51 -9.32)"  >
<path style="stroke: none; stroke-width: 1; stroke-dasharray: none; stroke-linecap: butt; stroke-dashoffset: 0; stroke-linejoin: miter; stroke-miterlimit: 4; fill: rgb(255,182,182); fill-rule: nonzero; opacity: 1;" vector-effect="non-scaling-stroke"  transform=" translate(-453.42, -238.7)" d="M 468.93625 244.36122 C 473.45162999999997 249.77079 474.32052 256.48551 470.87735999999995 259.35857 C 467.4342 262.23161999999996 460.98382999999995 260.17494 456.46756999999997 254.76282999999998 C 454.63384999999994 252.62565999999998 453.33860999999996 250.08042999999998 452.69021999999995 247.34006999999997 L 433.84782999999993 224.17786999999998 L 443.0262599999999 216.75005 L 462.3069099999999 239.31536 C 464.8879699999999 240.44374 467.1611799999999 242.17397 468.9362599999999 244.36123 Z" stroke-linecap="round" />
</g>
		<g transform="matrix(1 0 0 1 142.87 -63)"  >
<polygon style="stroke: none; stroke-width: 1; stroke-dasharray: none; stroke-linecap: butt; stroke-dashoffset: 0; stroke-linejoin: miter; stroke-miterlimit: 4; fill: rgb(200,230,201); fill-rule: nonzero; opacity: 1;" vector-effect="non-scaling-stroke"  points="-31.18,-55.14 -37.74,-29.17 -5.64,22.21 27.12,55.14 37.74,46.33 4.7,5.22 -20.35,-47.76 -31.18,-55.14 " />
</g>
		<g transform="matrix(1 -0.07 0.07 1 184.22 -197.24)"  >
<ellipse style="stroke: none; stroke-width: 1; stroke-dasharray: none; stroke-linecap: butt; stroke-dashoffset: 0; stroke-linejoin: miter; stroke-miterlimit: 4; fill: rgb(107,255,99); fill-rule: nonzero; opacity: 1;" vector-effect="non-scaling-stroke"  cx="0" cy="0" rx="41.5" ry="52.5" />
</g>
		<g transform="matrix(1 0 0 1 186.22 -43.49)"  >
<rect style="stroke: none; stroke-width: 1; stroke-dasharray: none; stroke-linecap: butt; stroke-dashoffset: 0; stroke-linejoin: miter; stroke-miterlimit: 4; fill: rgb(220,220,227); fill-rule: nonzero; opacity: 1;" vector-effect="non-scaling-stroke"  x="-1" y="-99.72" rx="0" ry="0" width="2" height="199.44" />
</g>
		<g transform="matrix(1 0 0 1 184.49 -140.63)"  >
<polygon style="stroke: none; stroke-width: 1; stroke-dasharray: none; stroke-linecap: butt; stroke-dashoffset: 0; stroke-linejoin: miter; stroke-miterlimit: 4; fill: rgb(108,99,255); fill-rule: nonzero; opacity: 1;" vector-effect="non-scaling-stroke"  points="3.23,-6.8 3.47,0.26 6.66,6.8 -6.66,6.13 -1.06,0.49 -1.69,-5.93 3.23,-6.8 " />
</g>
		<g transform="matrix(1 0 0 1 68.81 -162.46)"  >
<circle style="stroke: none; stroke-width: 1; stroke-dasharray: none; stroke-linecap: butt; stroke-dashoffset: 0; stroke-linejoin: miter; stroke-miterlimit: 4; fill: rgb(255,182,182); fill-rule: nonzero; opacity: 1;" vector-effect="non-scaling-stroke"  cx="0" cy="0" r="27.53355" />
</g>
		<g transform="matrix(1 0 0 1 61.1 -176.78)"  >
<path style="stroke: none; stroke-width: 1; stroke-dasharray: none; stroke-linecap: butt; stroke-dashoffset: 0; stroke-linejoin: miter; stroke-miterlimit: 4; fill: rgb(51,51,51); fill-rule: nonzero; opacity: 1;" vector-effect="non-scaling-stroke"  transform=" translate(-337.67, -71.24)" d="M 341.52141 48.54491 C 342.31812 49.00998 343.38530000000003 48.30634 343.64076 47.4199 C 343.89621999999997 46.53346 343.59864 45.59229 343.30354 44.71825 L 341.81795999999997 40.318169999999995 C 340.76435999999995 37.19754 339.64612999999997 33.96785 337.36427999999995 31.592649999999995 C 333.92019999999997 28.007659999999994 328.44674999999995 27.095649999999996 323.51953999999995 27.756369999999997 C 317.19203999999996 28.604859999999995 310.94897999999995 32.03113 308.00686999999994 37.69692 C 305.06476999999995 43.36271 306.3173299999999 51.268519999999995 311.6335199999999 54.803399999999996 C 304.0567899999999 63.48759 301.41565999999995 73.16582 301.8326899999999 84.68311 C 302.2497099999999 96.2004 314.8007399999999 106.80007 322.9856899999999 114.91355 C 324.81353999999993 113.80554000000001 326.47525999999993 108.6129 325.4701099999999 106.72653 C 324.4649599999999 104.84016 325.9051099999999 102.65474 324.6602699999999 100.91718999999999 C 323.4154299999999 99.17963999999998 322.3739599999999 101.94633999999999 323.6324699999999 100.21865 C 324.4266099999999 99.12845 321.3271099999999 96.62038 322.5075399999999 95.96786999999999 C 328.2171199999999 92.81181 330.1160799999999 85.69506999999999 333.7020599999999 80.24524 C 338.0274199999999 73.67173 345.4302699999999 69.22008 353.2644499999999 68.48155 C 357.5800299999999 68.07472 362.1382199999999 68.81157 365.6755399999999 71.31699 C 369.2128499999999 73.82241 371.5028899999999 78.29955000000001 370.6826199999999 82.55595000000001 C 372.8069799999999 80.39895000000001 373.8644399999999 77.23786000000001 373.46558999999985 74.23678000000001 C 373.06673999999987 71.23570000000001 371.22033999999985 68.46055000000001 368.60632999999984 66.93328000000001 C 370.19575999999984 61.67713000000001 368.8341399999998 55.63103000000001 365.14500999999984 51.56364000000001 C 361.45587999999987 47.49625 346.49072999999987 48.18901000000001 341.10486999999983 49.25947000000001" stroke-linecap="round" />
</g>
		<g transform="matrix(1 0 0 1 56.12 -152.28)"  >
<path style="stroke: none; stroke-width: 1; stroke-dasharray: none; stroke-linecap: butt; stroke-dashoffset: 0; stroke-linejoin: miter; stroke-miterlimit: 4; fill: rgb(51,51,51); fill-rule: nonzero; opacity: 1;" vector-effect="non-scaling-stroke"  transform=" translate(-329.36, -95.75)" d="M 340.68501 68.64111 C 333.55161 69.41116 328.40108999999995 75.59027999999999 324.0519 81.29668 C 321.54513 84.58572 318.91931 88.21791999999999 318.98224999999996 92.35285999999999 C 319.04587999999995 96.53339999999999 321.84099 100.11910999999999 323.17681999999996 104.08098999999999 C 325.36026999999996 110.55679999999998 323.23224 118.26151999999999 318.03463999999997 122.69869999999999 C 323.17044999999996 123.67327999999999 328.7224 119.82244999999999 329.60900999999996 114.67072999999999 C 330.64113 108.67348999999999 326.09493 102.88522999999999 326.63334999999995 96.82369 C 327.10769999999997 91.4834 331.31607999999994 87.37341 334.89381999999995 83.38049 C 338.47156999999993 79.38757 341.83169999999996 74.08905999999999 340.1857499999999 68.98665" stroke-linecap="round" />
</g>
		<g transform="matrix(1 0 0 1 -63.32 128.49)"  >
<path style="stroke: none; stroke-width: 1; stroke-dasharray: none; stroke-linecap: butt; stroke-dashoffset: 0; stroke-linejoin: miter; stroke-miterlimit: 4; fill: rgb(255,255,255); fill-rule: nonzero; opacity: 1;" vector-effect="non-scaling-stroke"  transform=" translate(-211.59, -376.5)" d="M 314.42637 234.55793 L 108.75752 234.55793 C 85.43456 234.55793 66.52757 253.46492 66.52757 276.78788 L 66.52757 476.22076999999996 C 66.52757 499.54367999999994 85.43451999999999 518.4506299999999 108.75743 518.4506299999999 L 314.42637 518.4506299999999 C 337.74933000000004 518.4506299999999 356.65632000000005 499.5436399999999 356.65632000000005 476.2206799999999 L 356.65632000000005 276.7878699999999 C 356.65632000000005 253.4649099999999 337.74933000000004 234.55791999999988 314.42637 234.55791999999988 Z" stroke-linecap="round" />
</g>
		<g transform="matrix(1 0 0 1 -63.32 128.49)"  >
<path style="stroke: none; stroke-width: 1; stroke-dasharray: none; stroke-linecap: butt; stroke-dashoffset: 0; stroke-linejoin: miter; stroke-miterlimit: 4; fill: rgb(63,61,86); fill-rule: nonzero; opacity: 1;" vector-effect="non-scaling-stroke"  transform=" translate(-211.59, -376.5)" d="M 314.42649 519.45019 L 108.75754 519.45019 C 84.92063 519.45019 65.52756000000001 500.05761 65.52756000000001 476.2207 L 65.52756000000001 276.78808000000004 C 65.52756000000001 252.95117000000005 84.92063000000002 233.55810000000002 108.75754 233.55810000000002 L 314.42649 233.55810000000002 C 338.2634 233.55810000000002 357.65647 252.95117000000002 357.65647 276.78808000000004 L 357.65647 476.2207 C 357.65647 500.05761 338.2634 519.45019 314.42649 519.45019 Z M 108.75754 235.5581 C 86.02316 235.5581 67.52756000000001 254.05371 67.52756000000001 276.78808 L 67.52756000000001 476.22069999999997 C 67.52756000000001 498.95507999999995 86.02317000000001 517.45019 108.75754 517.45019 L 314.42649 517.45019 C 337.16087 517.45019 355.65647 498.95507000000003 355.65647 476.2207 L 355.65647 276.78808000000004 C 355.65647 254.05371000000002 337.16086 235.55810000000002 314.42649 235.55810000000002 L 108.75754 235.55810000000002 Z" stroke-linecap="round" />
</g>
		<g transform="matrix(1 0 0 1 17.82 1.39)"  >
<circle style="stroke: none; stroke-width: 1; stroke-dasharray: none; stroke-linecap: butt; stroke-dashoffset: 0; stroke-linejoin: miter; stroke-miterlimit: 4; fill: rgb(63,61,86); fill-rule: nonzero; opacity: 1;" vector-effect="non-scaling-stroke"  cx="0" cy="0" r="4.76903" />
</g>
		<g transform="matrix(1 0 0 1 30.94 1.39)"  >
<circle style="stroke: none; stroke-width: 1; stroke-dasharray: none; stroke-linecap: butt; stroke-dashoffset: 0; stroke-linejoin: miter; stroke-miterlimit: 4; fill: rgb(63,61,86); fill-rule: nonzero; opacity: 1;" vector-effect="non-scaling-stroke"  cx="0" cy="0" r="4.76903" />
</g>
		<g transform="matrix(1 0 0 1 44.05 1.39)"  >
<circle style="stroke: none; stroke-width: 1; stroke-dasharray: none; stroke-linecap: butt; stroke-dashoffset: 0; stroke-linejoin: miter; stroke-miterlimit: 4; fill: rgb(63,61,86); fill-rule: nonzero; opacity: 1;" vector-effect="non-scaling-stroke"  cx="0" cy="0" r="4.76903" />
</g>
		<g transform="matrix(1 0 0 1 -65.34 203.3)"  >
<path style="stroke: none; stroke-width: 1; stroke-dasharray: none; stroke-linecap: butt; stroke-dashoffset: 0; stroke-linejoin: miter; stroke-miterlimit: 4; fill: rgb(230,230,230); fill-rule: nonzero; opacity: 1;" vector-effect="non-scaling-stroke"  transform=" translate(-209.56, -451.32)" d="M 102.01538 448.63094 C 100.53372999999999 448.63094 99.32845999999999 449.8362 99.32845999999999 451.31786 C 99.32845999999999 452.04032 99.60746999999999 452.70855 100.11389 453.20185 C 100.62468 453.72488999999996 101.29379 454.00478 102.01537 454.00478 L 317.11375 454.00478 C 318.5954 454.00478 319.80066999999997 452.79952 319.80066999999997 451.31786 C 319.80066999999997 450.5954 319.52165999999994 449.92717 319.01523999999995 449.43387 C 318.50444999999996 448.91083000000003 317.83534 448.63094 317.11375999999996 448.63094 L 102.01538 448.63094 Z" stroke-linecap="round" />
</g>
		<g transform="matrix(1 0 0 1 -117.17 203.3)"  >
<path style="stroke: none; stroke-width: 1; stroke-dasharray: none; stroke-linecap: butt; stroke-dashoffset: 0; stroke-linejoin: miter; stroke-miterlimit: 4; fill: rgb(200,230,201); fill-rule: nonzero; opacity: 1;" vector-effect="non-scaling-stroke"  transform=" translate(-157.73, -451.32)" d="M 217.02966 447.7353 L 217.02966 454.90041 L 102.01538 454.90041 C 101.0302 454.90041 100.13456 454.50627000000003 99.48973 453.84351000000004 C 98.82686 453.19868 98.43283 452.30304 98.43283 451.31786000000005 C 98.43283 449.3473900000001 100.04502 447.73531 102.01538 447.73531 L 217.02965999999998 447.73531 Z" stroke-linecap="round" />
</g>
		<g transform="matrix(1 0 0 1 19.82 179.12)"  >
<path style="stroke: none; stroke-width: 1; stroke-dasharray: none; stroke-linecap: butt; stroke-dashoffset: 0; stroke-linejoin: miter; stroke-miterlimit: 4; fill: rgb(230,230,230); fill-rule: nonzero; opacity: 1;" vector-effect="non-scaling-stroke"  transform=" translate(-294.72, -427.14)" d="M 312.63557 434.30072 L 276.81003 434.30072 C 272.85925 434.30072 269.64491999999996 431.08727 269.64491999999996 427.13561 C 269.64491999999996 423.18395 272.85925 419.97049999999996 276.81003 419.97049999999996 L 312.63557 419.97049999999996 C 316.58635 419.97049999999996 319.80068 423.18395 319.80068 427.13561 C 319.80068 431.08727 316.58635 434.30072 312.63557 434.30072 Z" stroke-linecap="round" />
</g>
		<g transform="matrix(1 0 0 1 -110.34 149.46)"  >
<polyline style="stroke: none; stroke-width: 1; stroke-dasharray: none; stroke-linecap: butt; stroke-dashoffset: 0; stroke-linejoin: miter; stroke-miterlimit: 4; fill: rgb(47,46,65); fill-rule: nonzero; opacity: 1;" vector-effect="non-scaling-stroke"  points="13.48,41.94 -11.56,-42.21 -13.48,-41.64 11.48,42.21 " />
</g>
		<g transform="matrix(1 -0.07 0.07 1 -99.86 -52.46)"  >
<ellipse style="stroke: none; stroke-width: 1; stroke-dasharray: none; stroke-linecap: butt; stroke-dashoffset: 0; stroke-linejoin: miter; stroke-miterlimit: 4; fill: rgb(107,255,99); fill-rule: nonzero; opacity: 1;" vector-effect="non-scaling-stroke"  cx="0" cy="0" rx="41.5" ry="52.5" />
</g>
		<g transform="matrix(1 0 0 1 -97.86 99.62)"  >
<rect style="stroke: none; stroke-width: 1; stroke-dasharray: none; stroke-linecap: butt; stroke-dashoffset: 0; stroke-linejoin: miter; stroke-miterlimit: 4; fill: rgb(47,46,65); fill-rule: nonzero; opacity: 1;" vector-effect="non-scaling-stroke"  x="-1" y="-99.72" rx="0" ry="0" width="2" height="199.44" />
</g>
		<g transform="matrix(1 0 0 1 -120.09 112.43)"  >
<polygon style="stroke: none; stroke-width: 1; stroke-dasharray: none; stroke-linecap: butt; stroke-dashoffset: 0; stroke-linejoin: miter; stroke-miterlimit: 4; fill: rgb(108,99,255); fill-rule: nonzero; opacity: 1;" vector-effect="non-scaling-stroke"  points="-0.69,-7.61 1.56,-0.9 6.48,4.46 -6.48,7.61 -2.72,0.61 -5.16,-5.36 -0.69,-7.61 " />
</g>
		<g transform="matrix(1 0 0 1 -99.6 2.49)"  >
<polygon style="stroke: none; stroke-width: 1; stroke-dasharray: none; stroke-linecap: butt; stroke-dashoffset: 0; stroke-linejoin: miter; stroke-miterlimit: 4; fill: rgb(108,99,255); fill-rule: nonzero; opacity: 1;" vector-effect="non-scaling-stroke"  points="3.23,-6.8 3.47,0.26 6.66,6.8 -6.66,6.13 -1.06,0.49 -1.69,-5.93 3.23,-6.8 " />
</g>
		<g transform="matrix(0.93 -0.36 0.36 0.93 -138.87 57.54)"  >
<ellipse style="stroke: none; stroke-width: 1; stroke-dasharray: none; stroke-linecap: butt; stroke-dashoffset: 0; stroke-linejoin: miter; stroke-miterlimit: 4; fill: rgb(107,255,99); fill-rule: nonzero; opacity: 1;" vector-effect="non-scaling-stroke"  cx="0" cy="0" rx="41.5" ry="52.5" />
</g>
		<g transform="matrix(1 0 0 1 46.45 -19.92)"  >
<path style="stroke: none; stroke-width: 1; stroke-dasharray: none; stroke-linecap: butt; stroke-dashoffset: 0; stroke-linejoin: miter; stroke-miterlimit: 4; fill: rgb(255,182,182); fill-rule: nonzero; opacity: 1;" vector-effect="non-scaling-stroke"  transform=" translate(-321.35, -228.1)" d="M 336.50935 224.32158 C 343.25505 226.35818 347.67215999999996 231.48961 346.37534999999997 235.78240000000002 C 345.07854 240.07519000000002 338.55965999999995 241.90313000000003 331.81183 239.86490000000003 C 329.10517999999996 239.08768000000003 326.62402 237.67358000000004 324.57592999999997 235.74089000000004 L 296.10310999999996 226.75080000000003 L 299.68692999999996 215.50036000000003 L 328.19771 223.75092000000004 C 330.97407999999996 223.27462000000003 333.82415999999995 223.47029000000003 336.50935 224.32158000000004 Z" stroke-linecap="round" />
</g>
		<g transform="matrix(1 0 0 1 15.14 -65.89)"  >
<path style="stroke: none; stroke-width: 1; stroke-dasharray: none; stroke-linecap: butt; stroke-dashoffset: 0; stroke-linejoin: miter; stroke-miterlimit: 4; fill: rgb(200,230,201); fill-rule: nonzero; opacity: 1;" vector-effect="non-scaling-stroke"  transform=" translate(-290.04, -182.13)" d="M 287.04192 150.55879 L 317.04192 128.55879 L 316.04192 170.55879 L 288.04192 206.55879 L 318.04192 218.55879 L 317.04192 235.69258 C 317.04192 235.69258 279.04192 226.55879 273.04192 225.55879 C 267.04192 224.55879 262.04192 210.55879 262.04192 210.55879 L 287.04192 150.55879 Z" stroke-linecap="round" />
</g>
		<g transform="matrix(0.46 0 0 0.46 -26.17 71.46)"  >
<path style="stroke: none; stroke-width: 1; stroke-dasharray: none; stroke-linecap: butt; stroke-dashoffset: 0; stroke-linejoin: miter; stroke-miterlimit: 4; fill: rgb(200,230,201); fill-rule: nonzero; opacity: 1;" vector-effect="non-scaling-stroke"  transform=" translate(-157.73, -451.32)" d="M 217.02966 447.7353 L 217.02966 454.90041 L 102.01538 454.90041 C 101.0302 454.90041 100.13456 454.50627000000003 99.48973 453.84351000000004 C 98.82686 453.19868 98.43283 452.30304 98.43283 451.31786000000005 C 98.43283 449.3473900000001 100.04502 447.73531 102.01538 447.73531 L 217.02965999999998 447.73531 Z" stroke-linecap="round" />
</g>
</g>
</g>
</svg>